<svg width="2000" height="500" viewBox="0 0 2000 500" fill="none" xmlns="http://www.w3.org/2000/svg">
<rect width="2000" height="500" rx="250" fill="url(#paint0_linear_3546_49)"/>
<path d="M275.934 439.148C279.006 439.148 283.588 437.686 287.919 435.122C388.888 374.445 422.87 350.411 422.87 283.976V139.9C422.87 119.701 415.353 113.338 399.338 106.409C375.425 96.1398 314.409 72.7247 290.417 63.8951C285.685 62.2063 280.889 61 275.934 61C270.981 61 266.035 62.5229 261.453 63.8951C237.54 71.7902 176.445 96.2981 152.453 106.409C136.516 113.097 129 119.701 129 139.9V283.976C129 350.411 163.219 373.789 263.951 435.122C268.282 437.686 272.864 439.148 275.934 439.148ZM275.934 410.119C273.028 410.119 269.885 408.814 265.118 405.859C182.024 351.756 153.337 336.149 153.337 278.519V144.754C153.337 136.512 154.883 133.254 160.912 130.653C185.981 120.249 242.632 99.4539 267.859 89.0579C270.937 87.678 273.865 87.1049 275.934 87.1049C278.004 87.1049 280.774 87.761 283.932 89.0579C309.008 99.4539 365.209 121.199 390.807 130.653C396.986 133.096 398.383 136.512 398.383 144.754V278.519C398.383 336.149 369.537 351.507 286.602 405.859C281.984 408.814 278.841 410.119 275.934 410.119Z" fill="white"/>
<path d="M210.221 166.002L351.78 315.014C354.301 317.649 354.395 321.708 351.78 324.533C349.256 327.302 345.244 327.189 342.741 324.533L201.094 175.542C198.659 172.978 198.659 168.566 201.094 166.002C203.615 163.347 207.736 163.386 210.221 166.002ZM217.542 209.724C197.445 223.725 184.939 240.906 184.939 246.651C184.939 258.736 224.804 303.616 276.496 303.616C285.788 303.616 294.701 302.161 303.049 299.665L317.515 314.881C305.139 319.491 291.361 322.255 276.496 322.255C209.357 322.255 163.183 264.348 163.183 246.651C163.183 236.525 178.292 213.295 203.799 195.268L217.542 209.724ZM389.823 246.651C389.823 256.599 375.518 279.251 350.9 297.181L337.259 282.824C356.286 269.393 368.013 253.203 368.013 246.651C368.013 236.395 328.115 189.682 276.496 189.682C267.988 189.682 259.802 190.947 252.105 193.198L237.523 177.852C249.408 173.604 262.499 171.083 276.496 171.083C344.456 171.083 389.823 228.933 389.823 246.651ZM292.405 288.469C287.509 290.57 282.149 291.709 276.529 291.709C252.795 291.709 233.585 271.34 233.585 246.484C233.585 240.583 234.656 234.952 236.636 229.809L292.405 288.469ZM319.439 246.484C319.439 251.736 318.584 256.787 316.967 261.467L262.287 203.916C266.728 202.223 271.528 201.328 276.529 201.328C300.295 201.328 319.439 221.523 319.439 246.484Z" fill="white"/>
<path d="M495 292.217C495 286.947 497.856 283.363 502.002 283.363C505.78 283.363 508.359 285.576 511.86 291.585C518.31 303.074 527.984 308.556 541.619 308.556C558.94 308.556 569.443 299.807 569.443 285.049C569.443 272.927 562.81 265.232 548.713 260.91L527.523 254.375C507.346 248.155 497.211 235.506 497.211 216.427C497.211 191.655 514.624 175 540.421 175C553.504 175 565.205 179.427 573.129 187.439C579.301 193.763 582.71 201.142 582.71 208.099C582.71 213.159 579.946 216.532 575.708 216.532C572.023 216.532 569.627 214.635 568.061 210.418C563.915 198.717 553.596 191.444 540.79 191.444C524.482 191.444 513.979 200.72 513.979 215.056C513.979 225.808 520.244 233.503 532.037 237.087L552.951 243.623C575.524 250.58 585.566 262.702 585.566 283.046C585.566 308.872 568.246 325 540.606 325C525.772 325 512.874 320.362 505.042 312.245C498.409 305.394 495 298.542 495 292.217Z" fill="white"/>
<path d="M603.717 261.437V238.563C603.717 198.612 621.775 175 652.915 175C668.209 175 680.187 180.587 689.031 190.917C695.204 198.296 699.166 207.572 699.166 213.686C699.166 218.851 696.402 221.908 692.164 221.908C688.571 221.908 686.268 220.221 683.688 214.635C676.317 198.928 666.828 191.655 653.56 191.655C631.909 191.655 619.84 208.732 619.84 238.668V261.332C619.84 291.585 631.909 308.45 653.56 308.45C667.012 308.45 677.146 301.283 684.056 285.892C686.636 280.622 688.571 278.619 691.98 278.619C696.586 278.619 699.166 281.887 699.166 286.841C699.166 293.271 695.02 302.653 688.755 309.821C680.095 319.729 668.025 325 652.915 325C621.682 325 603.717 301.81 603.717 261.437Z" fill="white"/>
<path d="M739.704 312.878C739.704 319.097 736.664 322.997 731.689 322.997C726.622 322.997 723.673 319.097 723.673 312.878V194.185C723.673 182.59 727.911 178.057 738.783 178.057H769.187C793.971 178.057 809.541 194.712 809.541 221.065C809.541 239.722 800.604 254.796 786.231 260.699L807.514 306.975C808.343 308.978 808.988 311.824 808.988 314.143C808.988 318.781 805.487 322.259 801.157 322.259C797.103 322.259 794.708 320.046 791.944 313.826L770.293 264.705H739.704V312.878ZM739.704 248.682H766.515C783.744 248.682 793.049 239.406 793.049 222.013C793.049 204.515 783.468 194.396 767.16 194.396H739.704V248.682Z" fill="white"/>
<path d="M835.522 306.342V193.658C835.522 182.484 839.761 178.057 850.356 178.057H903.793C908.768 178.057 911.993 181.219 911.993 186.279C911.993 191.339 908.768 194.501 903.793 194.501H851.554V240.46H900.568C905.543 240.46 908.676 243.517 908.676 248.577C908.676 253.637 905.543 256.588 900.568 256.588H851.554V305.499H903.793C908.768 305.499 911.993 308.767 911.993 313.826C911.993 318.886 908.768 321.943 903.701 321.943H850.356C839.761 321.943 835.522 317.516 835.522 306.342Z" fill="white"/>
<path d="M936.684 306.342V193.658C936.684 182.484 940.922 178.057 951.518 178.057H1004.95C1009.93 178.057 1013.15 181.219 1013.15 186.279C1013.15 191.339 1009.93 194.501 1004.95 194.501H952.715V240.46H1001.73C1006.71 240.46 1009.84 243.517 1009.84 248.577C1009.84 253.637 1006.71 256.588 1001.73 256.588H952.715V305.499H1004.95C1009.93 305.499 1013.15 308.767 1013.15 313.826C1013.15 318.886 1009.93 321.943 1004.86 321.943H951.518C940.922 321.943 936.684 317.516 936.684 306.342Z" fill="white"/>
<path d="M1053.69 312.878C1053.69 319.097 1050.84 322.997 1045.95 322.997C1040.98 322.997 1038.21 319.097 1038.21 312.878V189.125C1038.21 181.325 1041.25 177.003 1047.34 177.003C1052.13 177.003 1054.98 181.114 1058.76 187.755L1116.34 290.425H1117.17V187.122C1117.17 180.903 1119.94 177.003 1124.91 177.003C1129.79 177.003 1132.74 180.903 1132.74 187.122V310.98C1132.74 318.781 1129.7 322.997 1123.9 322.997C1119.2 322.997 1116.71 320.678 1112.57 313.299L1054.43 209.469H1053.69V312.878Z" fill="white"/>
<path d="M1209.12 322.997C1204.15 322.997 1201.11 319.097 1201.11 312.878V193.974C1201.11 182.484 1205.25 178.057 1216.12 178.057H1246.8C1270.85 178.057 1286.88 195.977 1286.88 222.751C1286.88 249.736 1270.85 267.34 1246.62 267.34H1217.14V312.878C1217.14 319.097 1214.1 322.997 1209.12 322.997ZM1217.23 251.212H1236.39C1261.36 251.212 1270.39 243.728 1270.39 222.751C1270.39 204.726 1261.45 194.29 1245.88 194.29H1217.23V251.212Z" fill="white"/>
<path d="M1323.09 312.878C1323.09 319.097 1320.05 322.997 1315.07 322.997C1310.01 322.997 1307.06 319.097 1307.06 312.878V194.185C1307.06 182.59 1311.3 178.057 1322.17 178.057H1352.57C1377.35 178.057 1392.93 194.712 1392.93 221.065C1392.93 239.722 1383.99 254.796 1369.62 260.699L1390.9 306.975C1391.73 308.978 1392.37 311.824 1392.37 314.143C1392.37 318.781 1388.87 322.259 1384.54 322.259C1380.49 322.259 1378.09 320.046 1375.33 313.826L1353.68 264.705H1323.09V312.878ZM1323.09 248.682H1349.9C1367.13 248.682 1376.43 239.406 1376.43 222.013C1376.43 204.515 1366.85 194.396 1350.54 194.396H1323.09V248.682Z" fill="white"/>
<path d="M1426.92 322.997C1421.95 322.997 1418.91 319.097 1418.91 312.878V187.122C1418.91 180.903 1421.95 177.003 1426.92 177.003C1431.9 177.003 1435.03 180.903 1435.03 187.122V312.878C1435.03 319.097 1431.9 322.997 1426.92 322.997Z" fill="white"/>
<path d="M1505.6 298.647L1538.77 185.752C1540.61 179.216 1543.29 176.476 1547.43 176.476C1552.04 176.476 1555.63 179.954 1555.63 185.014C1555.63 186.911 1554.89 190.601 1554.25 192.92L1516.84 310.664C1514.08 319.308 1511.04 322.997 1505.24 322.997C1499.43 322.997 1496.21 319.308 1493.44 310.664L1456.13 192.92C1455.3 189.968 1454.65 187.017 1454.65 185.014C1454.65 179.954 1458.34 176.476 1463.04 176.476C1467.28 176.476 1469.76 179.322 1471.61 185.752L1504.87 298.647H1505.6Z" fill="white"/>
<path d="M1565.12 323.313C1560.51 323.313 1557.47 320.257 1557.47 315.408C1557.47 313.299 1557.94 311.297 1558.67 308.767L1596.54 187.649C1598.84 180.271 1602.07 176.897 1607.96 176.897C1613.86 176.897 1617.08 180.271 1619.39 187.649L1657.25 308.767C1657.99 311.086 1658.45 313.299 1658.45 315.302C1658.45 320.257 1655.41 323.313 1650.71 323.313C1646.29 323.313 1643.8 320.889 1642.05 314.67L1631.46 278.725H1584.38L1573.78 314.67C1572.03 320.994 1569.54 323.313 1565.12 323.313ZM1588.71 263.862H1627.13L1608.24 199.772H1607.59L1588.71 263.862Z" fill="white"/>
<path d="M1671.35 261.437V238.563C1671.35 198.612 1689.41 175 1720.55 175C1735.84 175 1747.82 180.587 1756.67 190.917C1762.84 198.296 1766.8 207.572 1766.8 213.686C1766.8 218.851 1764.04 221.908 1759.8 221.908C1756.2 221.908 1753.9 220.221 1751.32 214.635C1743.95 198.928 1734.46 191.655 1721.19 191.655C1699.54 191.655 1687.47 208.732 1687.47 238.668V261.332C1687.47 291.585 1699.54 308.45 1721.19 308.45C1734.65 308.45 1744.78 301.283 1751.69 285.892C1754.27 280.622 1756.2 278.619 1759.61 278.619C1764.22 278.619 1766.8 281.887 1766.8 286.841C1766.8 293.271 1762.65 302.653 1756.39 309.821C1747.73 319.729 1735.66 325 1720.55 325C1689.32 325 1671.35 301.81 1671.35 261.437Z" fill="white"/>
<path d="M1826.04 322.997C1821.07 322.997 1818.03 319.097 1818.03 312.983L1818.12 259.118L1783.57 193.974C1781.08 189.125 1780.44 187.544 1780.44 185.014C1780.44 179.849 1783.38 176.476 1787.9 176.476C1791.49 176.476 1793.7 178.479 1796.74 184.487L1825.76 241.62H1826.41L1855.52 184.487C1858.56 178.479 1860.78 176.476 1864.37 176.476C1868.88 176.476 1871.83 179.849 1871.83 185.014C1871.83 187.439 1871.19 189.125 1868.61 194.079L1834.06 259.118L1834.15 312.983C1834.15 319.097 1831.02 322.997 1826.04 322.997Z" fill="white"/>
<path d="M495 292.217C495 286.947 497.856 283.363 502.002 283.363C505.78 283.363 508.359 285.576 511.86 291.585C518.31 303.074 527.984 308.556 541.619 308.556C558.94 308.556 569.443 299.807 569.443 285.049C569.443 272.927 562.81 265.232 548.713 260.91L527.523 254.375C507.346 248.155 497.211 235.506 497.211 216.427C497.211 191.655 514.624 175 540.421 175C553.504 175 565.205 179.427 573.129 187.439C579.301 193.763 582.71 201.142 582.71 208.099C582.71 213.159 579.946 216.532 575.708 216.532C572.023 216.532 569.627 214.635 568.061 210.418C563.915 198.717 553.596 191.444 540.79 191.444C524.482 191.444 513.979 200.72 513.979 215.056C513.979 225.808 520.244 233.503 532.037 237.087L552.951 243.623C575.524 250.58 585.566 262.702 585.566 283.046C585.566 308.872 568.246 325 540.606 325C525.772 325 512.874 320.362 505.042 312.245C498.409 305.394 495 298.542 495 292.217Z" stroke="white"/>
<path d="M603.717 261.437V238.563C603.717 198.612 621.775 175 652.915 175C668.209 175 680.187 180.587 689.031 190.917C695.204 198.296 699.166 207.572 699.166 213.686C699.166 218.851 696.402 221.908 692.164 221.908C688.571 221.908 686.268 220.221 683.688 214.635C676.317 198.928 666.828 191.655 653.56 191.655C631.909 191.655 619.84 208.732 619.84 238.668V261.332C619.84 291.585 631.909 308.45 653.56 308.45C667.012 308.45 677.146 301.283 684.056 285.892C686.636 280.622 688.571 278.619 691.98 278.619C696.586 278.619 699.166 281.887 699.166 286.841C699.166 293.271 695.02 302.653 688.755 309.821C680.095 319.729 668.025 325 652.915 325C621.682 325 603.717 301.81 603.717 261.437Z" stroke="white"/>
<path d="M739.704 312.878C739.704 319.097 736.664 322.997 731.689 322.997C726.622 322.997 723.673 319.097 723.673 312.878V194.185C723.673 182.59 727.911 178.057 738.783 178.057H769.187C793.971 178.057 809.541 194.712 809.541 221.065C809.541 239.722 800.604 254.796 786.231 260.699L807.514 306.975C808.343 308.978 808.988 311.824 808.988 314.143C808.988 318.781 805.487 322.259 801.157 322.259C797.103 322.259 794.708 320.046 791.944 313.826L770.293 264.705H739.704V312.878ZM739.704 248.682H766.515C783.744 248.682 793.049 239.406 793.049 222.013C793.049 204.515 783.468 194.396 767.16 194.396H739.704V248.682Z" stroke="white"/>
<path d="M835.522 306.342V193.658C835.522 182.484 839.761 178.057 850.356 178.057H903.793C908.768 178.057 911.993 181.219 911.993 186.279C911.993 191.339 908.768 194.501 903.793 194.501H851.554V240.46H900.568C905.543 240.46 908.676 243.517 908.676 248.577C908.676 253.637 905.543 256.588 900.568 256.588H851.554V305.499H903.793C908.768 305.499 911.993 308.767 911.993 313.826C911.993 318.886 908.768 321.943 903.701 321.943H850.356C839.761 321.943 835.522 317.516 835.522 306.342Z" stroke="white"/>
<path d="M936.684 306.342V193.658C936.684 182.484 940.922 178.057 951.518 178.057H1004.95C1009.93 178.057 1013.15 181.219 1013.15 186.279C1013.15 191.339 1009.93 194.501 1004.95 194.501H952.715V240.46H1001.73C1006.71 240.46 1009.84 243.517 1009.84 248.577C1009.84 253.637 1006.71 256.588 1001.73 256.588H952.715V305.499H1004.95C1009.93 305.499 1013.15 308.767 1013.15 313.826C1013.15 318.886 1009.93 321.943 1004.86 321.943H951.518C940.922 321.943 936.684 317.516 936.684 306.342Z" stroke="white"/>
<path d="M1053.69 312.878C1053.69 319.097 1050.84 322.997 1045.95 322.997C1040.98 322.997 1038.21 319.097 1038.21 312.878V189.125C1038.21 181.325 1041.25 177.003 1047.34 177.003C1052.13 177.003 1054.98 181.114 1058.76 187.755L1116.34 290.425H1117.17V187.122C1117.17 180.903 1119.94 177.003 1124.91 177.003C1129.79 177.003 1132.74 180.903 1132.74 187.122V310.98C1132.74 318.781 1129.7 322.997 1123.9 322.997C1119.2 322.997 1116.71 320.678 1112.57 313.299L1054.43 209.469H1053.69V312.878Z" stroke="white"/>
<path d="M1209.12 322.997C1204.15 322.997 1201.11 319.097 1201.11 312.878V193.974C1201.11 182.484 1205.25 178.057 1216.12 178.057H1246.8C1270.85 178.057 1286.88 195.977 1286.88 222.751C1286.88 249.736 1270.85 267.34 1246.62 267.34H1217.14V312.878C1217.14 319.097 1214.1 322.997 1209.12 322.997ZM1217.23 251.212H1236.39C1261.36 251.212 1270.39 243.728 1270.39 222.751C1270.39 204.726 1261.45 194.29 1245.88 194.29H1217.23V251.212Z" stroke="white"/>
<path d="M1323.09 312.878C1323.09 319.097 1320.05 322.997 1315.07 322.997C1310.01 322.997 1307.06 319.097 1307.06 312.878V194.185C1307.06 182.59 1311.3 178.057 1322.17 178.057H1352.57C1377.35 178.057 1392.93 194.712 1392.93 221.065C1392.93 239.722 1383.99 254.796 1369.62 260.699L1390.9 306.975C1391.73 308.978 1392.37 311.824 1392.37 314.143C1392.37 318.781 1388.87 322.259 1384.54 322.259C1380.49 322.259 1378.09 320.046 1375.33 313.826L1353.68 264.705H1323.09V312.878ZM1323.09 248.682H1349.9C1367.13 248.682 1376.43 239.406 1376.43 222.013C1376.43 204.515 1366.85 194.396 1350.54 194.396H1323.09V248.682Z" stroke="white"/>
<path d="M1426.92 322.997C1421.95 322.997 1418.91 319.097 1418.91 312.878V187.122C1418.91 180.903 1421.95 177.003 1426.92 177.003C1431.9 177.003 1435.03 180.903 1435.03 187.122V312.878C1435.03 319.097 1431.9 322.997 1426.92 322.997Z" stroke="white"/>
<path d="M1505.6 298.647L1538.77 185.752C1540.61 179.216 1543.29 176.476 1547.43 176.476C1552.04 176.476 1555.63 179.954 1555.63 185.014C1555.63 186.911 1554.89 190.601 1554.25 192.92L1516.84 310.664C1514.08 319.308 1511.04 322.997 1505.24 322.997C1499.43 322.997 1496.21 319.308 1493.44 310.664L1456.13 192.92C1455.3 189.968 1454.65 187.017 1454.65 185.014C1454.65 179.954 1458.34 176.476 1463.04 176.476C1467.28 176.476 1469.76 179.322 1471.61 185.752L1504.87 298.647H1505.6Z" stroke="white"/>
<path d="M1565.12 323.313C1560.51 323.313 1557.47 320.257 1557.47 315.408C1557.47 313.299 1557.94 311.297 1558.67 308.767L1596.54 187.649C1598.84 180.271 1602.07 176.897 1607.96 176.897C1613.86 176.897 1617.08 180.271 1619.39 187.649L1657.25 308.767C1657.99 311.086 1658.45 313.299 1658.45 315.302C1658.45 320.257 1655.41 323.313 1650.71 323.313C1646.29 323.313 1643.8 320.889 1642.05 314.67L1631.46 278.725H1584.38L1573.78 314.67C1572.03 320.994 1569.54 323.313 1565.12 323.313ZM1588.71 263.862H1627.13L1608.24 199.772H1607.59L1588.71 263.862Z" stroke="white"/>
<path d="M1671.35 261.437V238.563C1671.35 198.612 1689.41 175 1720.55 175C1735.84 175 1747.82 180.587 1756.67 190.917C1762.84 198.296 1766.8 207.572 1766.8 213.686C1766.8 218.851 1764.04 221.908 1759.8 221.908C1756.2 221.908 1753.9 220.221 1751.32 214.635C1743.95 198.928 1734.46 191.655 1721.19 191.655C1699.54 191.655 1687.47 208.732 1687.47 238.668V261.332C1687.47 291.585 1699.54 308.45 1721.19 308.45C1734.65 308.45 1744.78 301.283 1751.69 285.892C1754.27 280.622 1756.2 278.619 1759.61 278.619C1764.22 278.619 1766.8 281.887 1766.8 286.841C1766.8 293.271 1762.65 302.653 1756.39 309.821C1747.73 319.729 1735.66 325 1720.55 325C1689.32 325 1671.35 301.81 1671.35 261.437Z" stroke="white"/>
<path d="M1826.04 322.997C1821.07 322.997 1818.03 319.097 1818.03 312.983L1818.12 259.118L1783.57 193.974C1781.08 189.125 1780.44 187.544 1780.44 185.014C1780.44 179.849 1783.38 176.476 1787.9 176.476C1791.49 176.476 1793.7 178.479 1796.74 184.487L1825.76 241.62H1826.41L1855.52 184.487C1858.56 178.479 1860.78 176.476 1864.37 176.476C1868.88 176.476 1871.83 179.849 1871.83 185.014C1871.83 187.439 1871.19 189.125 1868.61 194.079L1834.06 259.118L1834.15 312.983C1834.15 319.097 1831.02 322.997 1826.04 322.997Z" stroke="white"/>
<defs>
<linearGradient id="paint0_linear_3546_49" x1="999.587" y1="500" x2="1000.11" y2="0.000125739" gradientUnits="userSpaceOnUse">
<stop stop-color="#005299"/>
<stop offset="1" stop-color="#0088FF"/>
</linearGradient>
</defs>
</svg>
