<svg width="2000" height="500" viewBox="0 0 2000 500" fill="none" xmlns="http://www.w3.org/2000/svg">
<rect width="2000" height="500" rx="250" fill="url(#paint0_linear_3546_49)"/>
<path d="M271.934 439.148C275.006 439.148 279.588 437.686 283.919 435.122C384.888 374.445 418.87 350.411 418.87 283.976V139.9C418.87 119.701 411.353 113.338 395.338 106.409C371.425 96.1398 310.409 72.7247 286.417 63.8951C281.685 62.2063 276.889 61 271.934 61C266.981 61 262.035 62.5229 257.453 63.8951C233.54 71.7902 172.445 96.2981 148.453 106.409C132.516 113.097 125 119.701 125 139.9V283.976C125 350.411 159.219 373.789 259.951 435.122C264.282 437.686 268.864 439.148 271.934 439.148ZM271.934 410.119C269.028 410.119 265.885 408.814 261.118 405.859C178.024 351.756 149.337 336.149 149.337 278.519V144.754C149.337 136.512 150.883 133.254 156.912 130.653C181.981 120.249 238.632 99.4539 263.859 89.0579C266.937 87.678 269.865 87.1049 271.934 87.1049C274.004 87.1049 276.774 87.761 279.932 89.0579C305.008 99.4539 361.209 121.199 386.807 130.653C392.986 133.096 394.383 136.512 394.383 144.754V278.519C394.383 336.149 365.537 351.507 282.602 405.859C277.984 408.814 274.841 410.119 271.934 410.119Z" fill="white"/>
<path d="M206.221 166.002L347.78 315.014C350.301 317.649 350.395 321.708 347.78 324.533C345.256 327.302 341.244 327.189 338.741 324.533L197.094 175.542C194.659 172.978 194.659 168.566 197.094 166.002C199.615 163.347 203.736 163.386 206.221 166.002ZM213.542 209.724C193.445 223.725 180.939 240.906 180.939 246.651C180.939 258.736 220.804 303.616 272.496 303.616C281.788 303.616 290.701 302.161 299.049 299.665L313.515 314.881C301.139 319.491 287.361 322.255 272.496 322.255C205.357 322.255 159.183 264.348 159.183 246.651C159.183 236.525 174.292 213.295 199.799 195.268L213.542 209.724ZM385.823 246.651C385.823 256.599 371.518 279.251 346.9 297.181L333.259 282.824C352.286 269.393 364.013 253.203 364.013 246.651C364.013 236.395 324.115 189.682 272.496 189.682C263.988 189.682 255.802 190.947 248.105 193.198L233.523 177.852C245.408 173.604 258.499 171.083 272.496 171.083C340.456 171.083 385.823 228.933 385.823 246.651ZM288.405 288.469C283.509 290.57 278.149 291.709 272.529 291.709C248.795 291.709 229.585 271.34 229.585 246.484C229.585 240.583 230.656 234.952 232.636 229.809L288.405 288.469ZM315.439 246.484C315.439 251.736 314.584 256.787 312.967 261.467L258.287 203.916C262.728 202.223 267.528 201.328 272.529 201.328C296.295 201.328 315.439 221.523 315.439 246.484Z" fill="white"/>
<mask id="path-3-outside-1_3546_49" maskUnits="userSpaceOnUse" x="494.169" y="171" width="1385" height="158" fill="black">
<rect fill="white" x="494.169" y="171" width="1385" height="158"/>
<path d="M498.169 292.217C498.169 286.947 501.025 283.363 505.171 283.363C508.948 283.363 511.528 285.576 515.029 291.585C521.478 303.074 531.152 308.556 544.788 308.556C562.109 308.556 572.612 299.807 572.612 285.049C572.612 272.927 565.978 265.232 551.882 260.91L530.692 254.375C510.515 248.155 500.38 235.506 500.38 216.427C500.38 191.655 517.793 175 543.59 175C556.673 175 568.374 179.427 576.297 187.439C582.47 193.763 585.879 201.142 585.879 208.099C585.879 213.159 583.115 216.532 578.877 216.532C575.192 216.532 572.796 214.635 571.23 210.418C567.084 198.717 556.765 191.444 543.959 191.444C527.651 191.444 517.148 200.72 517.148 215.056C517.148 225.808 523.413 233.503 535.206 237.087L556.12 243.623C578.693 250.58 588.735 262.702 588.735 283.046C588.735 308.872 571.414 325 543.774 325C528.941 325 516.042 320.362 508.211 312.245C501.578 305.394 498.169 298.542 498.169 292.217Z"/>
<path d="M606.885 261.437V238.563C606.885 198.612 624.943 175 656.084 175C671.378 175 683.355 180.587 692.2 190.917C698.373 198.296 702.335 207.572 702.335 213.686C702.335 218.851 699.571 221.908 695.333 221.908C691.74 221.908 689.436 220.221 686.857 214.635C679.486 198.928 669.996 191.655 656.729 191.655C635.078 191.655 623.009 208.732 623.009 238.668V261.332C623.009 291.585 635.078 308.45 656.729 308.45C670.181 308.45 680.315 301.283 687.225 285.892C689.805 280.622 691.74 278.619 695.148 278.619C699.755 278.619 702.335 281.887 702.335 286.841C702.335 293.271 698.189 302.653 691.924 309.821C683.263 319.729 671.194 325 656.084 325C624.851 325 606.885 301.81 606.885 261.437Z"/>
<path d="M742.873 312.878C742.873 319.097 739.833 322.997 734.858 322.997C729.79 322.997 726.842 319.097 726.842 312.878V194.185C726.842 182.59 731.08 178.057 741.952 178.057H772.356C797.139 178.057 812.71 194.712 812.71 221.065C812.71 239.722 803.773 254.796 789.4 260.699L810.683 306.975C811.512 308.978 812.157 311.824 812.157 314.143C812.157 318.781 808.656 322.259 804.326 322.259C800.272 322.259 797.876 320.046 795.112 313.826L773.461 264.705H742.873V312.878ZM742.873 248.682H769.684C786.913 248.682 796.218 239.406 796.218 222.013C796.218 204.515 786.636 194.396 770.329 194.396H742.873V248.682Z"/>
<path d="M838.691 306.342V193.658C838.691 182.484 842.929 178.057 853.525 178.057H906.962C911.937 178.057 915.161 181.219 915.161 186.279C915.161 191.339 911.937 194.501 906.962 194.501H854.722V240.46H903.737C908.712 240.46 911.845 243.517 911.845 248.577C911.845 253.637 908.712 256.588 903.737 256.588H854.722V305.499H906.962C911.937 305.499 915.161 308.767 915.161 313.826C915.161 318.886 911.937 321.943 906.869 321.943H853.525C842.929 321.943 838.691 317.516 838.691 306.342Z"/>
<path d="M939.853 306.342V193.658C939.853 182.484 944.091 178.057 954.686 178.057H1008.12C1013.1 178.057 1016.32 181.219 1016.32 186.279C1016.32 191.339 1013.1 194.501 1008.12 194.501H955.884V240.46H1004.9C1009.87 240.46 1013.01 243.517 1013.01 248.577C1013.01 253.637 1009.87 256.588 1004.9 256.588H955.884V305.499H1008.12C1013.1 305.499 1016.32 308.767 1016.32 313.826C1016.32 318.886 1013.1 321.943 1008.03 321.943H954.686C944.091 321.943 939.853 317.516 939.853 306.342Z"/>
<path d="M1056.86 312.878C1056.86 319.097 1054.01 322.997 1049.12 322.997C1044.15 322.997 1041.38 319.097 1041.38 312.878V189.125C1041.38 181.325 1044.42 177.003 1050.5 177.003C1055.3 177.003 1058.15 181.114 1061.93 187.755L1119.51 290.425H1120.34V187.122C1120.34 180.903 1123.1 177.003 1128.08 177.003C1132.96 177.003 1135.91 180.903 1135.91 187.122V310.98C1135.91 318.781 1132.87 322.997 1127.07 322.997C1122.37 322.997 1119.88 320.678 1115.73 313.299L1057.6 209.469H1056.86V312.878Z"/>
<path d="M1212.29 322.997C1207.31 322.997 1204.27 319.097 1204.27 312.878V193.974C1204.27 182.484 1208.42 178.057 1219.29 178.057H1249.97C1274.02 178.057 1290.05 195.977 1290.05 222.751C1290.05 249.736 1274.02 267.34 1249.79 267.34H1220.3V312.878C1220.3 319.097 1217.26 322.997 1212.29 322.997ZM1220.4 251.212H1239.56C1264.53 251.212 1273.56 243.728 1273.56 222.751C1273.56 204.726 1264.62 194.29 1249.05 194.29H1220.4V251.212Z"/>
<path d="M1326.26 312.878C1326.26 319.097 1323.22 322.997 1318.24 322.997C1313.17 322.997 1310.23 319.097 1310.23 312.878V194.185C1310.23 182.59 1314.46 178.057 1325.34 178.057H1355.74C1380.52 178.057 1396.09 194.712 1396.09 221.065C1396.09 239.722 1387.16 254.796 1372.78 260.699L1394.07 306.975C1394.9 308.978 1395.54 311.824 1395.54 314.143C1395.54 318.781 1392.04 322.259 1387.71 322.259C1383.66 322.259 1381.26 320.046 1378.5 313.826L1356.85 264.705H1326.26V312.878ZM1326.26 248.682H1353.07C1370.3 248.682 1379.6 239.406 1379.6 222.013C1379.6 204.515 1370.02 194.396 1353.71 194.396H1326.26V248.682Z"/>
<path d="M1430.09 322.997C1425.12 322.997 1422.08 319.097 1422.08 312.878V187.122C1422.08 180.903 1425.12 177.003 1430.09 177.003C1435.07 177.003 1438.2 180.903 1438.2 187.122V312.878C1438.2 319.097 1435.07 322.997 1430.09 322.997Z"/>
<path d="M1508.77 298.647L1541.94 185.752C1543.78 179.216 1546.45 176.476 1550.6 176.476C1555.21 176.476 1558.8 179.954 1558.8 185.014C1558.8 186.911 1558.06 190.601 1557.42 192.92L1520.01 310.664C1517.25 319.308 1514.21 322.997 1508.4 322.997C1502.6 322.997 1499.37 319.308 1496.61 310.664L1459.3 192.92C1458.47 189.968 1457.82 187.017 1457.82 185.014C1457.82 179.954 1461.51 176.476 1466.21 176.476C1470.45 176.476 1472.93 179.322 1474.78 185.752L1508.04 298.647H1508.77Z"/>
<path d="M1568.29 323.313C1563.68 323.313 1560.64 320.257 1560.64 315.408C1560.64 313.299 1561.1 311.297 1561.84 308.767L1599.71 187.649C1602.01 180.271 1605.24 176.897 1611.13 176.897C1617.03 176.897 1620.25 180.271 1622.56 187.649L1660.42 308.767C1661.16 311.086 1661.62 313.299 1661.62 315.302C1661.62 320.257 1658.58 323.313 1653.88 323.313C1649.46 323.313 1646.97 320.889 1645.22 314.67L1634.63 278.725H1587.55L1576.95 314.67C1575.2 320.994 1572.71 323.313 1568.29 323.313ZM1591.88 263.862H1630.3L1611.41 199.772H1610.76L1591.88 263.862Z"/>
<path d="M1674.52 261.437V238.563C1674.52 198.612 1692.58 175 1723.72 175C1739.01 175 1750.99 180.587 1759.83 190.917C1766.01 198.296 1769.97 207.572 1769.97 213.686C1769.97 218.851 1767.2 221.908 1762.97 221.908C1759.37 221.908 1757.07 220.221 1754.49 214.635C1747.12 198.928 1737.63 191.655 1724.36 191.655C1702.71 191.655 1690.64 208.732 1690.64 238.668V261.332C1690.64 291.585 1702.71 308.45 1724.36 308.45C1737.81 308.45 1747.95 301.283 1754.86 285.892C1757.44 280.622 1759.37 278.619 1762.78 278.619C1767.39 278.619 1769.97 281.887 1769.97 286.841C1769.97 293.271 1765.82 302.653 1759.56 309.821C1750.9 319.729 1738.83 325 1723.72 325C1692.49 325 1674.52 301.81 1674.52 261.437Z"/>
<path d="M1829.21 322.997C1824.23 322.997 1821.19 319.097 1821.19 312.983L1821.29 259.118L1786.74 193.974C1784.25 189.125 1783.6 187.544 1783.6 185.014C1783.6 179.849 1786.55 176.476 1791.07 176.476C1794.66 176.476 1796.87 178.479 1799.91 184.487L1828.93 241.62H1829.58L1858.69 184.487C1861.73 178.479 1863.94 176.476 1867.54 176.476C1872.05 176.476 1875 179.849 1875 185.014C1875 187.439 1874.36 189.125 1871.78 194.079L1837.23 259.118L1837.32 312.983C1837.32 319.097 1834.19 322.997 1829.21 322.997Z"/>
</mask>
<path d="M498.169 292.217C498.169 286.947 501.025 283.363 505.171 283.363C508.948 283.363 511.528 285.576 515.029 291.585C521.478 303.074 531.152 308.556 544.788 308.556C562.109 308.556 572.612 299.807 572.612 285.049C572.612 272.927 565.978 265.232 551.882 260.91L530.692 254.375C510.515 248.155 500.38 235.506 500.38 216.427C500.38 191.655 517.793 175 543.59 175C556.673 175 568.374 179.427 576.297 187.439C582.47 193.763 585.879 201.142 585.879 208.099C585.879 213.159 583.115 216.532 578.877 216.532C575.192 216.532 572.796 214.635 571.23 210.418C567.084 198.717 556.765 191.444 543.959 191.444C527.651 191.444 517.148 200.72 517.148 215.056C517.148 225.808 523.413 233.503 535.206 237.087L556.12 243.623C578.693 250.58 588.735 262.702 588.735 283.046C588.735 308.872 571.414 325 543.774 325C528.941 325 516.042 320.362 508.211 312.245C501.578 305.394 498.169 298.542 498.169 292.217Z" fill="white"/>
<path d="M606.885 261.437V238.563C606.885 198.612 624.943 175 656.084 175C671.378 175 683.355 180.587 692.2 190.917C698.373 198.296 702.335 207.572 702.335 213.686C702.335 218.851 699.571 221.908 695.333 221.908C691.74 221.908 689.436 220.221 686.857 214.635C679.486 198.928 669.996 191.655 656.729 191.655C635.078 191.655 623.009 208.732 623.009 238.668V261.332C623.009 291.585 635.078 308.45 656.729 308.45C670.181 308.45 680.315 301.283 687.225 285.892C689.805 280.622 691.74 278.619 695.148 278.619C699.755 278.619 702.335 281.887 702.335 286.841C702.335 293.271 698.189 302.653 691.924 309.821C683.263 319.729 671.194 325 656.084 325C624.851 325 606.885 301.81 606.885 261.437Z" fill="white"/>
<path d="M742.873 312.878C742.873 319.097 739.833 322.997 734.858 322.997C729.79 322.997 726.842 319.097 726.842 312.878V194.185C726.842 182.59 731.08 178.057 741.952 178.057H772.356C797.139 178.057 812.71 194.712 812.71 221.065C812.71 239.722 803.773 254.796 789.4 260.699L810.683 306.975C811.512 308.978 812.157 311.824 812.157 314.143C812.157 318.781 808.656 322.259 804.326 322.259C800.272 322.259 797.876 320.046 795.112 313.826L773.461 264.705H742.873V312.878ZM742.873 248.682H769.684C786.913 248.682 796.218 239.406 796.218 222.013C796.218 204.515 786.636 194.396 770.329 194.396H742.873V248.682Z" fill="white"/>
<path d="M838.691 306.342V193.658C838.691 182.484 842.929 178.057 853.525 178.057H906.962C911.937 178.057 915.161 181.219 915.161 186.279C915.161 191.339 911.937 194.501 906.962 194.501H854.722V240.46H903.737C908.712 240.46 911.845 243.517 911.845 248.577C911.845 253.637 908.712 256.588 903.737 256.588H854.722V305.499H906.962C911.937 305.499 915.161 308.767 915.161 313.826C915.161 318.886 911.937 321.943 906.869 321.943H853.525C842.929 321.943 838.691 317.516 838.691 306.342Z" fill="white"/>
<path d="M939.853 306.342V193.658C939.853 182.484 944.091 178.057 954.686 178.057H1008.12C1013.1 178.057 1016.32 181.219 1016.32 186.279C1016.32 191.339 1013.1 194.501 1008.12 194.501H955.884V240.46H1004.9C1009.87 240.46 1013.01 243.517 1013.01 248.577C1013.01 253.637 1009.87 256.588 1004.9 256.588H955.884V305.499H1008.12C1013.1 305.499 1016.32 308.767 1016.32 313.826C1016.32 318.886 1013.1 321.943 1008.03 321.943H954.686C944.091 321.943 939.853 317.516 939.853 306.342Z" fill="white"/>
<path d="M1056.86 312.878C1056.86 319.097 1054.01 322.997 1049.12 322.997C1044.15 322.997 1041.38 319.097 1041.38 312.878V189.125C1041.38 181.325 1044.42 177.003 1050.5 177.003C1055.3 177.003 1058.15 181.114 1061.93 187.755L1119.51 290.425H1120.34V187.122C1120.34 180.903 1123.1 177.003 1128.08 177.003C1132.96 177.003 1135.91 180.903 1135.91 187.122V310.98C1135.91 318.781 1132.87 322.997 1127.07 322.997C1122.37 322.997 1119.88 320.678 1115.73 313.299L1057.6 209.469H1056.86V312.878Z" fill="white"/>
<path d="M1212.29 322.997C1207.31 322.997 1204.27 319.097 1204.27 312.878V193.974C1204.27 182.484 1208.42 178.057 1219.29 178.057H1249.97C1274.02 178.057 1290.05 195.977 1290.05 222.751C1290.05 249.736 1274.02 267.34 1249.79 267.34H1220.3V312.878C1220.3 319.097 1217.26 322.997 1212.29 322.997ZM1220.4 251.212H1239.56C1264.53 251.212 1273.56 243.728 1273.56 222.751C1273.56 204.726 1264.62 194.29 1249.05 194.29H1220.4V251.212Z" fill="white"/>
<path d="M1326.26 312.878C1326.26 319.097 1323.22 322.997 1318.24 322.997C1313.17 322.997 1310.23 319.097 1310.23 312.878V194.185C1310.23 182.59 1314.46 178.057 1325.34 178.057H1355.74C1380.52 178.057 1396.09 194.712 1396.09 221.065C1396.09 239.722 1387.16 254.796 1372.78 260.699L1394.07 306.975C1394.9 308.978 1395.54 311.824 1395.54 314.143C1395.54 318.781 1392.04 322.259 1387.71 322.259C1383.66 322.259 1381.26 320.046 1378.5 313.826L1356.85 264.705H1326.26V312.878ZM1326.26 248.682H1353.07C1370.3 248.682 1379.6 239.406 1379.6 222.013C1379.6 204.515 1370.02 194.396 1353.71 194.396H1326.26V248.682Z" fill="white"/>
<path d="M1430.09 322.997C1425.12 322.997 1422.08 319.097 1422.08 312.878V187.122C1422.08 180.903 1425.12 177.003 1430.09 177.003C1435.07 177.003 1438.2 180.903 1438.2 187.122V312.878C1438.2 319.097 1435.07 322.997 1430.09 322.997Z" fill="white"/>
<path d="M1508.77 298.647L1541.94 185.752C1543.78 179.216 1546.45 176.476 1550.6 176.476C1555.21 176.476 1558.8 179.954 1558.8 185.014C1558.8 186.911 1558.06 190.601 1557.42 192.92L1520.01 310.664C1517.25 319.308 1514.21 322.997 1508.4 322.997C1502.6 322.997 1499.37 319.308 1496.61 310.664L1459.3 192.92C1458.47 189.968 1457.82 187.017 1457.82 185.014C1457.82 179.954 1461.51 176.476 1466.21 176.476C1470.45 176.476 1472.93 179.322 1474.78 185.752L1508.04 298.647H1508.77Z" fill="white"/>
<path d="M1568.29 323.313C1563.68 323.313 1560.64 320.257 1560.64 315.408C1560.64 313.299 1561.1 311.297 1561.84 308.767L1599.71 187.649C1602.01 180.271 1605.24 176.897 1611.13 176.897C1617.03 176.897 1620.25 180.271 1622.56 187.649L1660.42 308.767C1661.16 311.086 1661.62 313.299 1661.62 315.302C1661.62 320.257 1658.58 323.313 1653.88 323.313C1649.46 323.313 1646.97 320.889 1645.22 314.67L1634.63 278.725H1587.55L1576.95 314.67C1575.2 320.994 1572.71 323.313 1568.29 323.313ZM1591.88 263.862H1630.3L1611.41 199.772H1610.76L1591.88 263.862Z" fill="white"/>
<path d="M1674.52 261.437V238.563C1674.52 198.612 1692.58 175 1723.72 175C1739.01 175 1750.99 180.587 1759.83 190.917C1766.01 198.296 1769.97 207.572 1769.97 213.686C1769.97 218.851 1767.2 221.908 1762.97 221.908C1759.37 221.908 1757.07 220.221 1754.49 214.635C1747.12 198.928 1737.63 191.655 1724.36 191.655C1702.71 191.655 1690.64 208.732 1690.64 238.668V261.332C1690.64 291.585 1702.71 308.45 1724.36 308.45C1737.81 308.45 1747.95 301.283 1754.86 285.892C1757.44 280.622 1759.37 278.619 1762.78 278.619C1767.39 278.619 1769.97 281.887 1769.97 286.841C1769.97 293.271 1765.82 302.653 1759.56 309.821C1750.9 319.729 1738.83 325 1723.72 325C1692.49 325 1674.52 301.81 1674.52 261.437Z" fill="white"/>
<path d="M1829.21 322.997C1824.23 322.997 1821.19 319.097 1821.19 312.983L1821.29 259.118L1786.74 193.974C1784.25 189.125 1783.6 187.544 1783.6 185.014C1783.6 179.849 1786.55 176.476 1791.07 176.476C1794.66 176.476 1796.87 178.479 1799.91 184.487L1828.93 241.62H1829.58L1858.69 184.487C1861.73 178.479 1863.94 176.476 1867.54 176.476C1872.05 176.476 1875 179.849 1875 185.014C1875 187.439 1874.36 189.125 1871.78 194.079L1837.23 259.118L1837.32 312.983C1837.32 319.097 1834.19 322.997 1829.21 322.997Z" fill="white"/>
<path d="M498.169 292.217C498.169 286.947 501.025 283.363 505.171 283.363C508.948 283.363 511.528 285.576 515.029 291.585C521.478 303.074 531.152 308.556 544.788 308.556C562.109 308.556 572.612 299.807 572.612 285.049C572.612 272.927 565.978 265.232 551.882 260.91L530.692 254.375C510.515 248.155 500.38 235.506 500.38 216.427C500.38 191.655 517.793 175 543.59 175C556.673 175 568.374 179.427 576.297 187.439C582.47 193.763 585.879 201.142 585.879 208.099C585.879 213.159 583.115 216.532 578.877 216.532C575.192 216.532 572.796 214.635 571.23 210.418C567.084 198.717 556.765 191.444 543.959 191.444C527.651 191.444 517.148 200.72 517.148 215.056C517.148 225.808 523.413 233.503 535.206 237.087L556.12 243.623C578.693 250.58 588.735 262.702 588.735 283.046C588.735 308.872 571.414 325 543.774 325C528.941 325 516.042 320.362 508.211 312.245C501.578 305.394 498.169 298.542 498.169 292.217Z" stroke="white" stroke-width="8" mask="url(#path-3-outside-1_3546_49)"/>
<path d="M606.885 261.437V238.563C606.885 198.612 624.943 175 656.084 175C671.378 175 683.355 180.587 692.2 190.917C698.373 198.296 702.335 207.572 702.335 213.686C702.335 218.851 699.571 221.908 695.333 221.908C691.74 221.908 689.436 220.221 686.857 214.635C679.486 198.928 669.996 191.655 656.729 191.655C635.078 191.655 623.009 208.732 623.009 238.668V261.332C623.009 291.585 635.078 308.45 656.729 308.45C670.181 308.45 680.315 301.283 687.225 285.892C689.805 280.622 691.74 278.619 695.148 278.619C699.755 278.619 702.335 281.887 702.335 286.841C702.335 293.271 698.189 302.653 691.924 309.821C683.263 319.729 671.194 325 656.084 325C624.851 325 606.885 301.81 606.885 261.437Z" stroke="white" stroke-width="8" mask="url(#path-3-outside-1_3546_49)"/>
<path d="M742.873 312.878C742.873 319.097 739.833 322.997 734.858 322.997C729.79 322.997 726.842 319.097 726.842 312.878V194.185C726.842 182.59 731.08 178.057 741.952 178.057H772.356C797.139 178.057 812.71 194.712 812.71 221.065C812.71 239.722 803.773 254.796 789.4 260.699L810.683 306.975C811.512 308.978 812.157 311.824 812.157 314.143C812.157 318.781 808.656 322.259 804.326 322.259C800.272 322.259 797.876 320.046 795.112 313.826L773.461 264.705H742.873V312.878ZM742.873 248.682H769.684C786.913 248.682 796.218 239.406 796.218 222.013C796.218 204.515 786.636 194.396 770.329 194.396H742.873V248.682Z" stroke="white" stroke-width="8" mask="url(#path-3-outside-1_3546_49)"/>
<path d="M838.691 306.342V193.658C838.691 182.484 842.929 178.057 853.525 178.057H906.962C911.937 178.057 915.161 181.219 915.161 186.279C915.161 191.339 911.937 194.501 906.962 194.501H854.722V240.46H903.737C908.712 240.46 911.845 243.517 911.845 248.577C911.845 253.637 908.712 256.588 903.737 256.588H854.722V305.499H906.962C911.937 305.499 915.161 308.767 915.161 313.826C915.161 318.886 911.937 321.943 906.869 321.943H853.525C842.929 321.943 838.691 317.516 838.691 306.342Z" stroke="white" stroke-width="8" mask="url(#path-3-outside-1_3546_49)"/>
<path d="M939.853 306.342V193.658C939.853 182.484 944.091 178.057 954.686 178.057H1008.12C1013.1 178.057 1016.32 181.219 1016.32 186.279C1016.32 191.339 1013.1 194.501 1008.12 194.501H955.884V240.46H1004.9C1009.87 240.46 1013.01 243.517 1013.01 248.577C1013.01 253.637 1009.87 256.588 1004.9 256.588H955.884V305.499H1008.12C1013.1 305.499 1016.32 308.767 1016.32 313.826C1016.32 318.886 1013.1 321.943 1008.03 321.943H954.686C944.091 321.943 939.853 317.516 939.853 306.342Z" stroke="white" stroke-width="8" mask="url(#path-3-outside-1_3546_49)"/>
<path d="M1056.86 312.878C1056.86 319.097 1054.01 322.997 1049.12 322.997C1044.15 322.997 1041.38 319.097 1041.38 312.878V189.125C1041.38 181.325 1044.42 177.003 1050.5 177.003C1055.3 177.003 1058.15 181.114 1061.93 187.755L1119.51 290.425H1120.34V187.122C1120.34 180.903 1123.1 177.003 1128.08 177.003C1132.96 177.003 1135.91 180.903 1135.91 187.122V310.98C1135.91 318.781 1132.87 322.997 1127.07 322.997C1122.37 322.997 1119.88 320.678 1115.73 313.299L1057.6 209.469H1056.86V312.878Z" stroke="white" stroke-width="8" mask="url(#path-3-outside-1_3546_49)"/>
<path d="M1212.29 322.997C1207.31 322.997 1204.27 319.097 1204.27 312.878V193.974C1204.27 182.484 1208.42 178.057 1219.29 178.057H1249.97C1274.02 178.057 1290.05 195.977 1290.05 222.751C1290.05 249.736 1274.02 267.34 1249.79 267.34H1220.3V312.878C1220.3 319.097 1217.26 322.997 1212.29 322.997ZM1220.4 251.212H1239.56C1264.53 251.212 1273.56 243.728 1273.56 222.751C1273.56 204.726 1264.62 194.29 1249.05 194.29H1220.4V251.212Z" stroke="white" stroke-width="8" mask="url(#path-3-outside-1_3546_49)"/>
<path d="M1326.26 312.878C1326.26 319.097 1323.22 322.997 1318.24 322.997C1313.17 322.997 1310.23 319.097 1310.23 312.878V194.185C1310.23 182.59 1314.46 178.057 1325.34 178.057H1355.74C1380.52 178.057 1396.09 194.712 1396.09 221.065C1396.09 239.722 1387.16 254.796 1372.78 260.699L1394.07 306.975C1394.9 308.978 1395.54 311.824 1395.54 314.143C1395.54 318.781 1392.04 322.259 1387.71 322.259C1383.66 322.259 1381.26 320.046 1378.5 313.826L1356.85 264.705H1326.26V312.878ZM1326.26 248.682H1353.07C1370.3 248.682 1379.6 239.406 1379.6 222.013C1379.6 204.515 1370.02 194.396 1353.71 194.396H1326.26V248.682Z" stroke="white" stroke-width="8" mask="url(#path-3-outside-1_3546_49)"/>
<path d="M1430.09 322.997C1425.12 322.997 1422.08 319.097 1422.08 312.878V187.122C1422.08 180.903 1425.12 177.003 1430.09 177.003C1435.07 177.003 1438.2 180.903 1438.2 187.122V312.878C1438.2 319.097 1435.07 322.997 1430.09 322.997Z" stroke="white" stroke-width="8" mask="url(#path-3-outside-1_3546_49)"/>
<path d="M1508.77 298.647L1541.94 185.752C1543.78 179.216 1546.45 176.476 1550.6 176.476C1555.21 176.476 1558.8 179.954 1558.8 185.014C1558.8 186.911 1558.06 190.601 1557.42 192.92L1520.01 310.664C1517.25 319.308 1514.21 322.997 1508.4 322.997C1502.6 322.997 1499.37 319.308 1496.61 310.664L1459.3 192.92C1458.47 189.968 1457.82 187.017 1457.82 185.014C1457.82 179.954 1461.51 176.476 1466.21 176.476C1470.45 176.476 1472.93 179.322 1474.78 185.752L1508.04 298.647H1508.77Z" stroke="white" stroke-width="8" mask="url(#path-3-outside-1_3546_49)"/>
<path d="M1568.29 323.313C1563.68 323.313 1560.64 320.257 1560.64 315.408C1560.64 313.299 1561.1 311.297 1561.84 308.767L1599.71 187.649C1602.01 180.271 1605.24 176.897 1611.13 176.897C1617.03 176.897 1620.25 180.271 1622.56 187.649L1660.42 308.767C1661.16 311.086 1661.62 313.299 1661.62 315.302C1661.62 320.257 1658.58 323.313 1653.88 323.313C1649.46 323.313 1646.97 320.889 1645.22 314.67L1634.63 278.725H1587.55L1576.95 314.67C1575.2 320.994 1572.71 323.313 1568.29 323.313ZM1591.88 263.862H1630.3L1611.41 199.772H1610.76L1591.88 263.862Z" stroke="white" stroke-width="8" mask="url(#path-3-outside-1_3546_49)"/>
<path d="M1674.52 261.437V238.563C1674.52 198.612 1692.58 175 1723.72 175C1739.01 175 1750.99 180.587 1759.83 190.917C1766.01 198.296 1769.97 207.572 1769.97 213.686C1769.97 218.851 1767.2 221.908 1762.97 221.908C1759.37 221.908 1757.07 220.221 1754.49 214.635C1747.12 198.928 1737.63 191.655 1724.36 191.655C1702.71 191.655 1690.64 208.732 1690.64 238.668V261.332C1690.64 291.585 1702.71 308.45 1724.36 308.45C1737.81 308.45 1747.95 301.283 1754.86 285.892C1757.44 280.622 1759.37 278.619 1762.78 278.619C1767.39 278.619 1769.97 281.887 1769.97 286.841C1769.97 293.271 1765.82 302.653 1759.56 309.821C1750.9 319.729 1738.83 325 1723.72 325C1692.49 325 1674.52 301.81 1674.52 261.437Z" stroke="white" stroke-width="8" mask="url(#path-3-outside-1_3546_49)"/>
<path d="M1829.21 322.997C1824.23 322.997 1821.19 319.097 1821.19 312.983L1821.29 259.118L1786.74 193.974C1784.25 189.125 1783.6 187.544 1783.6 185.014C1783.6 179.849 1786.55 176.476 1791.07 176.476C1794.66 176.476 1796.87 178.479 1799.91 184.487L1828.93 241.62H1829.58L1858.69 184.487C1861.73 178.479 1863.94 176.476 1867.54 176.476C1872.05 176.476 1875 179.849 1875 185.014C1875 187.439 1874.36 189.125 1871.78 194.079L1837.23 259.118L1837.32 312.983C1837.32 319.097 1834.19 322.997 1829.21 322.997Z" stroke="white" stroke-width="8" mask="url(#path-3-outside-1_3546_49)"/>
<defs>
<linearGradient id="paint0_linear_3546_49" x1="999.587" y1="500" x2="1000.11" y2="0.000125739" gradientUnits="userSpaceOnUse">
<stop stop-color="#005299"/>
<stop offset="1" stop-color="#0088FF"/>
</linearGradient>
</defs>
</svg>
